<svg xmlns="http://www.w3.org/2000/svg" viewBox="0 0 32 32" fill="none">
  <rect width="32" height="32" rx="8" fill="#050f07"/>
  <rect width="32" height="32" rx="8" fill="url(#grad)"/>
  <defs>
    <linearGradient id="grad" x1="0" y1="0" x2="32" y2="32" gradientUnits="userSpaceOnUse">
      <stop offset="0%" stop-color="#059669"/>
      <stop offset="100%" stop-color="#34d399"/>
    </linearGradient>
  </defs>
  <!-- Open book icon -->
  <path d="M16 10C13.5 10 11 10.8 9 12V22C11 20.8 13.5 20 16 20C18.5 20 21 20.8 23 22V12C21 10.8 18.5 10 16 10Z" fill="white" fill-opacity="0.15"/>
  <path d="M16 10V20M9 12C11 10.8 13.5 10 16 10C18.5 10 21 10.8 23 12V22C21 20.8 18.5 20 16 20C13.5 20 11 20.8 9 22V12Z" stroke="white" stroke-width="1.5" stroke-linecap="round" stroke-linejoin="round"/>
</svg>